:SAMPLES-PER-SECOND 30
:FULLY-SPECIFIED
:DEGREES
78
root  76.1128 37.815 0.63752 33.4358 84.2752 29.8529
RightUpLeg  -15.916 4.85216 -2.74631
RightLeg  63.366 11.1873 1.44045
RightFoot  14.3932 -0.996941 4.03301
RightToes  -1.16416e-010 -3.18055e-015 8.94531e-016
Spine  -2.78622 -1.24992 -5.20278
Spine1  13.7346 -1.76888 -1.93948
HEad  -9.26126 5.8391 -0.347273
LeftShoulder1  0 -2.69403e-036 -1.28585e-037
LeftArm  10.8114 19.8766 -81.4185
LeftForeArm  -32.5167 -20.8774 6.94758
LeftHand  0.66172 4.7044 -0.82447
RightShoulder  -2.48481e-017 0 -8.08114e-019
RightArm  37.9371 -38.1685 88.5629
RightForeArm  -39.7407 19.3441 -5.45187
RightHand  1.06297 -11.7268 1.87952
LeftUpLeg  -24.6454 -10.5293 -7.52362
LeftLeg  28.3515 1.96752 6.92247
LeftFoot  -6.54429 -0.220029 3.34105
LeftToes  4.03816e-010 4.04885e-011 2.79281e-011
79
root  78.0303 38.2968 0.751348 36.4568 86.5002 33.023
RightUpLeg  -20.38 5.17837 -1.5767
RightLeg  61.5395 10.999 1.00536
RightFoot  12.0581 -0.745482 3.33033
RightToes  -1.16416e-010 -3.18055e-015 8.94531e-016
Spine  -2.63952 -2.35833 -5.90628
Spine1  12.3393 -3.44069 0.249623
HEad  -7.49774 6.11604 -0.281597
LeftShoulder1  0 -2.69403e-036 -1.28585e-037
LeftArm  20.5028 16.0162 -81.3037
LeftForeArm  -42.8551 -26.2744 16.3084
LeftHand  0.594534 4.38531 0.149654
RightShoulder  -2.48481e-017 0 -8.08114e-019
RightArm  41.9842 -47.7267 83.3366
RightForeArm  -43.9124 19.7852 -6.42884
RightHand  1.18975 -12.2632 0.29155
LeftUpLeg  -19.7755 -12.7016 -6.95776
LeftLeg  25.7931 2.34104 6.43945
LeftFoot  -7.98664 -0.160145 2.87901
LeftToes  4.03816e-010 4.04885e-011 2.79281e-011
80
root  79.9397 38.7076 0.885732 51.3845 88.491 48.1891
RightUpLeg  -24.089 5.24153 -0.540904
RightLeg  57.2513 10.5248 0.192667
RightFoot  9.79709 -0.679427 3.34277
RightToes  -1.16416e-010 -3.18055e-015 8.94531e-016
Spine  -2.51948 -3.34613 -6.85492
Spine1  11.0138 -4.97113 2.90687
HEad  -5.70386 6.29392 -0.521023
LeftShoulder1  0 -2.69403e-036 -1.28585e-037
LeftArm  17.2776 11.935 -80.1953
LeftForeArm  -39.5404 -30.9086 19.5337
LeftHand  0.620815 4.55384 0.0244077
RightShoulder  -2.48481e-017 0 -8.08114e-019
RightArm  45.5612 -56.5045 75.1772
RightForeArm  -47.6083 20.411 -9.35434
RightHand  1.11291 -11.6457 0.658955
LeftUpLeg  -14.8187 -11.5563 -6.79153
LeftLeg  22.8023 -0.221917 5.71477
LeftFoot  -8.64195 -0.133466 2.59727
LeftToes  4.03816e-010 4.04885e-011 2.79281e-011
81
root  81.7995 39.0302 1.04359 -167.895 89.1894 -170.702
RightUpLeg  -26.7974 4.8673 0.235731
RightLeg  50.8657 10.1892 -0.102972
RightFoot  7.20639 -0.468247 2.58528
RightToes  -1.16416e-010 -3.18055e-015 8.94531e-016
Spine  -2.11329 -4.47793 -8.20301
Spine1  9.80181 -6.61478 5.82832
HEad  -4.49643 6.65519 -0.750678
LeftShoulder1  0 -2.69403e-036 -1.28585e-037
LeftArm  13.3256 8.02535 -78.7294
LeftForeArm  -36.8529 -35.211 21.3709
LeftHand  0.709892 5.1474 -0.359808
RightShoulder  -2.48481e-017 0 -8.08114e-019
RightArm  50.7474 -63.2456 64.2639
RightForeArm  -50.0012 20.738 -12.0483
RightHand  0.938975 -10.3159 2.14335
LeftUpLeg  -10.0215 -8.14997 -6.31282
LeftLeg  19.8387 -4.863 4.52303
LeftFoot  -9.04149 -0.115174 2.31936
LeftToes  4.03816e-010 4.04885e-011 2.79281e-011
82
root  83.6068 39.1867 1.22411 -176.772 86.9016 -179.223
RightUpLeg  -28.4587 3.9921 0.414642
RightLeg  42.5312 10.7212 0.663094
RightFoot  5.008 -0.329398 2.0504
RightToes  -1.16416e-010 -3.18055e-015 8.94531e-016
Spine  -1.78528 -5.84642 -9.83392
Spine1  9.15908 -8.30617 8.0593
HEad  -4.02936 7.43345 -0.495798
LeftShoulder1  0 -2.69403e-036 -1.28585e-037
LeftArm  10.8667 4.37299 -76.9633
LeftForeArm  -36.2398 -38.6588 23.0602
LeftHand  0.782867 5.6935 -0.321073
RightShoulder  -2.48481e-017 0 -8.08114e-019
RightArm  54.6392 -67.2972 52.7218
RightForeArm  -49.1207 20.6183 -12.1495
RightHand  1.03055 -10.7976 0.749762
LeftUpLeg  -5.71043 -5.00417 -5.52063
LeftLeg  17.5581 -9.55574 3.22478
LeftFoot  -9.69092 -0.100083 2.19845
LeftToes  4.03816e-010 4.04885e-011 2.79281e-011
83
root  85.398 39.189 1.38822 -176.345 84.9256 -178.684
RightUpLeg  -29.1138 2.77979 0.227142
RightLeg  31.9025 12.5518 1.90818
RightFoot  4.11665 -0.417613 2.75084
RightToes  -1.16416e-010 -3.18055e-015 8.94531e-016
Spine  -2.09007 -7.27866 -10.9945
Spine1  9.61065 -9.83404 9.10003
HEad  -4.00094 8.33796 -0.305734
LeftShoulder1  0 -2.69403e-036 -1.28585e-037
LeftArm  9.26155 0.96003 -74.9667
LeftForeArm  -36.0541 -41.3298 24.4802
LeftHand  0.791245 5.80672 0.131838
RightShoulder  -2.48481e-017 0 -8.08114e-019
RightArm  54.6934 -68.9598 43.266
RightForeArm  -44.8381 20.035 -9.94418
RightHand  1.26823 -12.1055 -1.55022
LeftUpLeg  -1.93458 -2.96959 -4.63884
LeftLeg  15.8567 -13.1953 2.32294
LeftFoot  -10.3788 -0.0950403 2.44998
LeftToes  4.03816e-010 4.04885e-011 2.79281e-011
84
root  87.162 39.1451 1.50676 -175.312 83.3516 -177.695
RightUpLeg  -28.6194 1.65111 0.175659
RightLeg  18.5185 14.6525 2.06536
RightFoot  4.3617 -0.630867 4.08408
RightToes  -1.16416e-010 -3.18055e-015 8.94531e-016
Spine  -2.7342 -8.45082 -11.1005
Spine1  10.9732 -11.1031 9.54669
HEad  -4.62211 8.81417 -0.754181
LeftShoulder1  0 -2.69403e-036 -1.28585e-037
LeftArm  8.01572 -2.01781 -73.1548
LeftForeArm  -36.073 -43.4542 25.6944
LeftHand  0.774788 5.72813 0.499421
RightShoulder  -2.48481e-017 0 -8.08114e-019
RightArm  52.2276 -69.1768 36.6492
RightForeArm  -39.0877 19.0998 -7.27781
RightHand  1.16388 -11.5707 -0.585961
LeftUpLeg  1.57409 -1.97805 -3.45375
LeftLeg  14.1102 -15.3463 1.93539
LeftFoot  -10.7595 -0.0808055 2.14186
LeftToes  4.03816e-010 4.04885e-011 2.79281e-011
85
root  88.9261 39.0152 1.62626 -174.684 82.1187 -177.049
RightUpLeg  -27.1259 2.66147 -1.02617
RightLeg  4.11505 12.3085 1.26153
RightFoot  4.05019 -0.700385 4.64006
RightToes  -1.16416e-010 -3.18055e-015 8.94531e-016
Spine  -3.24929 -9.1509 -10.9127
Spine1  12.4469 -11.9991 9.97325
HEad  -5.54965 8.44591 -1.9006
LeftShoulder1  0 -2.69403e-036 -1.28585e-037
LeftArm  7.04149 -4.16671 -72.1218
LeftForeArm  -36.0737 -44.9688 26.6233
LeftHand  0.766939 5.72706 1.00193
RightShoulder  -2.48481e-017 0 -8.08114e-019
RightArm  49.539 -69.0121 32.2744
RightForeArm  -34.4155 18.1762 -5.33073
RightHand  1.0337 -10.6463 0.205697
LeftUpLeg  4.8073 -1.89519 -2.25978
LeftLeg  12.9734 -16.2189 1.71404
LeftFoot  -11.1997 -0.0420297 0.455276
LeftToes  4.03816e-010 4.04885e-011 2.79281e-011
86
root  90.7933 38.6778 1.80461 -178.02 81.2287 179.658
RightUpLeg  -26.6351 2.94381 -2.0786
RightLeg  -4.48412 7.41652 0.702832
RightFoot  1.76866 -0.500368 3.78674
RightToes  -1.16416e-010 -3.18055e-015 8.94531e-016
Spine  -3.86701 -9.48162 -11.3016
Spine1  13.3473 -12.3685 10.2574
HEad  -5.8528 7.63341 -3.34822
LeftShoulder1  0 -2.69403e-036 -1.28585e-037
LeftArm  6.88697 -5.04949 -72.1233
LeftForeArm  -35.6937 -45.6203 27.0692
LeftHand  0.765045 5.7785 1.63354
RightShoulder  -2.48481e-017 0 -8.08114e-019
RightArm  47.9405 -69.0641 29.9915
RightForeArm  -32.7319 17.5633 -4.14869
RightHand  1.30743 -11.9053 -2.72482
LeftUpLeg  7.66461 -2.80359 -1.71437
LeftLeg  13.3597 -16.1305 1.35084
LeftFoot  -11.9713 -0.0196448 -1.36187
LeftToes  4.03816e-010 4.04885e-011 2.79281e-011
